<?xml version="1.0" encoding="UTF-8" standalone="no"?><!DOCTYPE svg PUBLIC "-//W3C//DTD SVG 1.1//EN" "http://www.w3.org/Graphics/SVG/1.1/DTD/svg11.dtd"><!-- Generated by graphviz version 2.40.1 (20161225.0304)
 --><!-- Title: G Pages: 1 --><svg xmlns="http://www.w3.org/2000/svg" xmlns:xlink="http://www.w3.org/1999/xlink" width="550pt" height="400pt" viewBox="0.00 0.00 549.57 400.49">
<g id="graph0" class="graph" transform="scale(1 1) rotate(0) translate(4 396.4939)">
<title>G</title>
<!-- main.c -->
<g id="node1" class="node">
<title>main.c</title>
<ellipse fill="none" stroke="#000000" cx="236.2854" cy="-374.4939" rx="37.097" ry="18"/>
<text text-anchor="middle" x="236.2854" y="-370.2939" font-family="Times,serif" font-size="14.00" fill="#000000">main.c</text>
</g>
<!-- visualiser.h\nvisualiser.c -->
<g id="node2" class="node">
<title>visualiser.h\nvisualiser.c</title>
<ellipse fill="none" stroke="#000000" cx="236.2854" cy="-291.0782" rx="56.8509" ry="29.3315"/>
<text text-anchor="middle" x="236.2854" y="-295.2782" font-family="Times,serif" font-size="14.00" fill="#000000">visualiser.h</text>
<text text-anchor="middle" x="236.2854" y="-278.4782" font-family="Times,serif" font-size="14.00" fill="#000000">visualiser.c</text>
</g>
<!-- main.c&#45;&gt;visualiser.h\nvisualiser.c -->
<g id="edge1" class="edge">
<title>main.c-&gt;visualiser.h\nvisualiser.c</title>
<path fill="none" stroke="#000000" d="M236.2854,-346.1499C236.2854,-337.9228 236.2854,-328.92 236.2854,-320.6213"/>
<polygon fill="#000000" stroke="#000000" points="232.7855,-346.3939 236.2854,-356.3939 239.7855,-346.3939 232.7855,-346.3939"/>
</g>
<!-- prims.h\nprims.c -->
<g id="node3" class="node">
<title>prims.h\nprims.c</title>
<ellipse fill="none" stroke="#000000" cx="41.2854" cy="-196.2469" rx="41.0719" ry="29.3315"/>
<text text-anchor="middle" x="41.2854" y="-200.4469" font-family="Times,serif" font-size="14.00" fill="#000000">prims.h</text>
<text text-anchor="middle" x="41.2854" y="-183.6469" font-family="Times,serif" font-size="14.00" fill="#000000">prims.c</text>
</g>
<!-- visualiser.h\nvisualiser.c&#45;&gt;prims.h\nprims.c -->
<g id="edge2" class="edge">
<title>visualiser.h\nvisualiser.c-&gt;prims.h\nprims.c</title>
<path fill="none" stroke="#000000" d="M182.4372,-268.438C154.842,-256.4216 120.9011,-240.9978 91.2854,-225.6626 85.2038,-222.5135 78.8253,-218.9619 72.7366,-215.4438"/>
<polygon fill="#000000" stroke="#000000" points="181.3483,-271.7804 191.9158,-272.5405 184.1287,-265.3563 181.3483,-271.7804"/>
</g>
<!-- kruskals.h\nkruskals.c -->
<g id="node4" class="node">
<title>kruskals.h\nkruskals.c</title>
<ellipse fill="none" stroke="#000000" cx="152.2854" cy="-196.2469" rx="51.9578" ry="29.3315"/>
<text text-anchor="middle" x="152.2854" y="-200.4469" font-family="Times,serif" font-size="14.00" fill="#000000">kruskals.h</text>
<text text-anchor="middle" x="152.2854" y="-183.6469" font-family="Times,serif" font-size="14.00" fill="#000000">kruskals.c</text>
</g>
<!-- visualiser.h\nvisualiser.c&#45;&gt;kruskals.h\nkruskals.c -->
<g id="edge3" class="edge">
<title>visualiser.h\nvisualiser.c-&gt;kruskals.h\nkruskals.c</title>
<path fill="none" stroke="#000000" d="M205.737,-256.5907C195.7986,-245.3708 184.934,-233.1053 175.6109,-222.5801"/>
<polygon fill="#000000" stroke="#000000" points="203.1884,-258.9921 212.4391,-264.157 208.4284,-254.3506 203.1884,-258.9921"/>
</g>
<!-- recursive_backtrack.h\nrecursive_backtrack.c -->
<g id="node5" class="node">
<title>recursive_backtrack.h\nrecursive_backtrack.c</title>
<ellipse fill="none" stroke="#000000" cx="320.2854" cy="-196.2469" rx="98.3724" ry="29.3315"/>
<text text-anchor="middle" x="320.2854" y="-200.4469" font-family="Times,serif" font-size="14.00" fill="#000000">recursive_backtrack.h</text>
<text text-anchor="middle" x="320.2854" y="-183.6469" font-family="Times,serif" font-size="14.00" fill="#000000">recursive_backtrack.c</text>
</g>
<!-- visualiser.h\nvisualiser.c&#45;&gt;recursive_backtrack.h\nrecursive_backtrack.c -->
<g id="edge4" class="edge">
<title>visualiser.h\nvisualiser.c-&gt;recursive_backtrack.h\nrecursive_backtrack.c</title>
<path fill="none" stroke="#000000" d="M266.9688,-256.4384C276.1504,-246.0729 286.1117,-234.8271 294.9117,-224.8924"/>
<polygon fill="#000000" stroke="#000000" points="264.1425,-254.3506 260.1318,-264.157 269.3824,-258.9921 264.1425,-254.3506"/>
</g>
<!-- dijkstras.h\ndijkstras.c -->
<g id="node6" class="node">
<title>dijkstras.h\ndijkstras.c</title>
<ellipse fill="none" stroke="#000000" cx="489.2854" cy="-196.2469" rx="52.0625" ry="29.3315"/>
<text text-anchor="middle" x="489.2854" y="-200.4469" font-family="Times,serif" font-size="14.00" fill="#000000">dijkstras.h</text>
<text text-anchor="middle" x="489.2854" y="-183.6469" font-family="Times,serif" font-size="14.00" fill="#000000">dijkstras.c</text>
</g>
<!-- visualiser.h\nvisualiser.c&#45;&gt;dijkstras.h\ndijkstras.c -->
<g id="edge5" class="edge">
<title>visualiser.h\nvisualiser.c-&gt;dijkstras.h\ndijkstras.c</title>
<path fill="none" stroke="#000000" d="M295.0245,-272.863C333.1274,-260.5825 383.6253,-243.43 427.2854,-225.6626 434.679,-222.6538 442.4493,-219.205 449.8927,-215.7527"/>
<polygon fill="#000000" stroke="#000000" points="293.576,-269.6517 285.1203,-276.0354 295.7114,-276.3181 293.576,-269.6517"/>
</g>
<!-- utils.h\nutils.c -->
<g id="node7" class="node">
<title>utils.h\nutils.c</title>
<ellipse fill="none" stroke="#000000" cx="236.2854" cy="-101.4156" rx="35.5836" ry="29.3315"/>
<text text-anchor="middle" x="236.2854" y="-105.6156" font-family="Times,serif" font-size="14.00" fill="#000000">utils.h</text>
<text text-anchor="middle" x="236.2854" y="-88.8156" font-family="Times,serif" font-size="14.00" fill="#000000">utils.c</text>
</g>
<!-- prims.h\nprims.c&#45;&gt;utils.h\nutils.c -->
<g id="edge6" class="edge">
<title>prims.h\nprims.c-&gt;utils.h\nutils.c</title>
<path fill="none" stroke="#000000" d="M81.7216,-171.9638C84.9348,-170.1858 88.1496,-168.455 91.2854,-166.8313 129.2977,-147.1482 174.4354,-127.3192 204.1351,-114.7367"/>
<polygon fill="#000000" stroke="#000000" points="79.7148,-169.0779 72.7366,-177.0501 83.1632,-175.1696 79.7148,-169.0779"/>
</g>
<!-- kruskals.h\nkruskals.c&#45;&gt;utils.h\nutils.c -->
<g id="edge7" class="edge">
<title>kruskals.h\nkruskals.c-&gt;utils.h\nutils.c</title>
<path fill="none" stroke="#000000" d="M182.5575,-162.0714C193.3117,-149.9306 205.1811,-136.5307 215.0225,-125.4203"/>
<polygon fill="#000000" stroke="#000000" points="179.6948,-160.0247 175.6841,-169.8311 184.9348,-164.6662 179.6948,-160.0247"/>
</g>
<!-- recursive_backtrack.h\nrecursive_backtrack.c&#45;&gt;utils.h\nutils.c -->
<g id="edge8" class="edge">
<title>recursive_backtrack.h\nrecursive_backtrack.c-&gt;utils.h\nutils.c</title>
<path fill="none" stroke="#000000" d="M288.4391,-160.2942C278.0943,-148.6155 266.8753,-135.9499 257.5025,-125.3686"/>
<polygon fill="#000000" stroke="#000000" points="285.832,-162.6295 295.0826,-167.7944 291.0719,-157.988 285.832,-162.6295"/>
</g>
<!-- dijkstras.h\ndijkstras.c&#45;&gt;utils.h\nutils.c -->
<g id="edge9" class="edge">
<title>dijkstras.h\ndijkstras.c-&gt;utils.h\nutils.c</title>
<path fill="none" stroke="#000000" d="M440.7063,-172.5647C436.1981,-170.5593 431.6753,-168.6178 427.2854,-166.8313 373.2307,-144.8338 308.6948,-123.7789 270.1771,-111.7456"/>
<polygon fill="#000000" stroke="#000000" points="439.3407,-175.7885 449.8927,-176.7412 442.2379,-169.4162 439.3407,-175.7885"/>
</g>
<!-- constants.h -->
<g id="node8" class="node">
<title>constants.h</title>
<ellipse fill="none" stroke="#000000" cx="236.2854" cy="-18" rx="54.434" ry="18"/>
<text text-anchor="middle" x="236.2854" y="-13.8" font-family="Times,serif" font-size="14.00" fill="#000000">constants.h</text>
</g>
<!-- utils.h\nutils.c&#45;&gt;constants.h -->
<g id="edge10" class="edge">
<title>utils.h\nutils.c-&gt;constants.h</title>
<path fill="none" stroke="#000000" d="M236.2854,-61.5746C236.2854,-52.7643 236.2854,-43.8427 236.2854,-36.3866"/>
<polygon fill="#000000" stroke="#000000" points="232.7855,-61.7715 236.2854,-71.7715 239.7855,-61.7716 232.7855,-61.7715"/>
</g>
</g>
</svg>